<?xml version="1.0" encoding="UTF-8" standalone="no"?>
<!-- Created with Inkscape (http://www.inkscape.org/) -->

<svg
   version="1.1"
   id="svg1"
   width="378.17783"
   height="336.8017"
   viewBox="0 0 378.17783 336.8017"
   xmlns="http://www.w3.org/2000/svg"
   xmlns:svg="http://www.w3.org/2000/svg">
  <defs
     id="defs1" />
  <g
     id="g1"
     transform="translate(-78.767441,-56.990486)">
    <path
       style="fill:#000000"
       d="m 1246.7081,1069.8878 c -6.1876,-2.0643 -9.4627,-4.1135 -13.1575,-8.2324 l -3.4823,-3.882 -3.4499,2.05 c -4.8851,2.9029 -15.6338,3.5088 -22.3556,1.2603 -6.8736,-2.2994 -14.403,-9.7273 -16.7767,-16.5506 l -1.7533,-5.04 h -5.8022 c -7.6841,0 -13.6534,-2.1719 -19.0022,-6.9137 -6.458,-5.7251 -9.3582,-12.0616 -9.542,-20.8479 l -0.149,-7.1217 -4.3004,-1.2628 c -5.564,-1.634 -12.5933,-7.91066 -15.8304,-14.1355 -3.5524,-6.83098 -3.6991,-18.10245 -0.3224,-24.75495 l 2.2723,-4.47652 -3.5002,-3.09514 c -5.74,-5.07578 -8.4284,-10.65833 -8.9251,-18.53329 -0.238,-3.77219 0.038,-8.61208 0.6139,-10.75532 1.3429,-4.99995 5.9283,-11.90896 9.4577,-14.25033 l 2.7542,-1.82713 -2.3002,-4.14497 c -2.8425,-5.12213 -3.7364,-12.97715 -2.2073,-19.39662 2.1533,-9.04006 10.5494,-18.00447 19.0128,-20.29969 l 3.4263,-0.92921 0.04,-6.98763 c 0.091,-15.91119 11.8066,-27.59621 27.6899,-27.61824 l 6.7598,-0.009 1.1852,-3.98402 c 3.4937,-11.74412 14.0335,-19.29941 26.9596,-19.32545 4.9805,-0.01 7.5006,0.53761 11.3862,2.47427 4.9279,2.45623 5.0064,2.46354 6.3107,0.58801 2.3333,-3.35495 6.2973,-6.62105 10.6985,-8.8148 6.1358,-3.05834 17.7435,-3.02966 23.9689,0.0592 4.6621,2.31319 7.9941,5.04656 10.4209,8.54876 l 1.4594,2.10597 4.99,-2.48715 c 3.8855,-1.93666 6.4057,-2.4843 11.3862,-2.47427 12.926,0.026 23.4659,7.58133 26.9596,19.32545 l 1.1852,3.98402 6.7597,0.009 c 11.3219,0.0157 20.4896,5.82329 25.5547,16.18843 1.655,3.38679 2.1713,6.10235 2.1731,11.42981 v 6.98763 l 3.3926,0.92005 c 15.7824,4.28009 24.5966,24.54743 17.1064,39.33432 l -2.064,4.07461 4.012,3.88264 c 2.2066,2.13545 5.0805,6.2331 6.3864,9.10588 2.0768,4.56876 2.3226,6.21447 1.962,13.13368 -0.4685,8.99125 -2.8786,14.30504 -8.905,19.63409 l -3.4422,3.04385 2.0676,4.30153 c 2.9717,6.18271 3.4836,14.28189 1.3403,21.20556 -2.3181,7.48793 -10.3396,15.88767 -17.0558,17.86007 l -4.5518,1.3367 -0.1687,7.1359 c -0.2075,8.7789 -3.1238,15.1037 -9.6195,20.8622 -5.3488,4.7418 -11.3181,6.9137 -19.0022,6.9137 h -5.8022 l -1.7165,4.8674 c -2.0546,5.826 -6.9796,11.5712 -12.9492,15.1057 -3.9164,2.3188 -5.3074,2.5869 -13.4244,2.5869 -7.6442,0 -9.6135,-0.3322 -12.6364,-2.1315 l -3.5809,-2.1315 -3.8282,4.1828 c -6.6826,7.3015 -19.2856,10.8526 -28.0909,7.9149 z m 12.1237,-10.277 c 4.2213,-1.1807 8.8562,-4.9035 10.7872,-8.6644 0.7676,-1.4949 1.3956,-2.8474 1.3956,-3.0056 0,-0.1583 -7.5064,-0.2877 -16.6809,-0.2877 -9.1745,0 -16.6809,0.1294 -16.6809,0.2877 0,1.1435 3.1012,5.87 5.0616,7.7141 2.3395,2.2007 8.324,4.8382 11.1427,4.9107 0.7864,0.02 3.025,-0.4094 4.9747,-0.9548 z m -35.0935,-10.861 c 1.8861,-1.449 3.4293,-2.9418 3.4293,-3.3176 0,-0.3757 -2.8016,-1.4912 -6.2258,-2.4788 -3.4242,-0.9877 -10.2872,-3.8045 -15.2511,-6.2597 l -9.0253,-4.464 v 3.6793 c 0,4.3445 1.6721,7.8924 5.3958,11.449 3.8492,3.6765 6.7146,4.6372 12.86,4.3116 4.1263,-0.2186 6.1905,-0.9022 8.8171,-2.9198 z m 77.4782,2.2022 c 6.0105,-2.2871 10.7855,-8.947 10.7855,-15.043 v -3.6793 l -9.0254,4.464 c -4.9639,2.4552 -11.8269,5.272 -15.2511,6.2597 -3.4242,0.9876 -6.2258,2.0581 -6.2258,2.3789 0,0.9353 3.1039,3.5036 6.1979,5.1284 3.3051,1.7356 9.6436,1.9659 13.5189,0.4913 z m -116.4506,-22.9848 c 1.3874,-0.5313 2.3804,-1.3716 2.2067,-1.8673 -0.1736,-0.4958 -2.941,-3.1931 -6.1497,-5.9941 -3.2086,-2.801 -8.1414,-7.7962 -10.9617,-11.1005 -4.5582,-5.3405 -5.2588,-5.8285 -6.3072,-4.3932 -3.406,4.6628 -2.1562,12.4681 2.9306,18.3031 4.7951,5.5002 11.9483,7.477 18.2813,5.052 z m 151.3497,-0.3311 c 3.9226,-1.6507 8.7133,-7.1221 10.1949,-11.6433 1.2392,-3.7817 0.7075,-8.7672 -1.2179,-11.4191 -1.0767,-1.483 -1.7224,-1.0169 -6.2819,4.5342 -2.7951,3.4029 -7.8258,8.4731 -11.1794,11.2671 -3.3535,2.794 -6.0974,5.3645 -6.0974,5.7123 0,1.201 4.3012,2.716 7.8945,2.7808 1.9828,0.036 4.992,-0.5187 6.6872,-1.232 z m -177.7415,-33.98302 c -0.1772,-0.396 -2.1011,-4.392 -4.2752,-8.88 -2.174,-4.488 -4.9014,-11.31465 -6.0608,-15.17033 -2.0825,-6.92528 -2.1315,-6.98934 -4.0411,-5.28 -2.5966,2.32441 -5.4346,8.7425 -5.4346,12.29033 0,6.37489 6.1705,15.01449 11.9725,16.76311 3.4982,1.0543 8.2626,1.22258 7.8392,0.27689 z m 199.4235,-0.23597 c 6.1857,-1.73071 12.3492,-10.36558 12.3492,-17.30087 0,-3.33031 -2.108,-8.02993 -5.0598,-11.28052 l -1.9772,-2.17736 -3.5089,10.04278 c -1.9298,5.52353 -4.8504,12.4368 -6.49,15.36282 -1.6396,2.92602 -2.9812,5.54258 -2.9812,5.81458 0,0.80018 4.0243,0.55801 7.6679,-0.46143 z m -214.0345,-57.60403 c 0,-14.89261 -0.1457,-16.32 -1.6654,-16.32 -2.5745,0 -9.0615,6.45445 -10.307,10.25525 -1.4936,4.55817 -0.6515,12.32569 1.6801,15.49626 2.0503,2.78807 7.5515,6.88849 9.2418,6.88849 0.724,0 1.0505,-5.07191 1.0505,-16.32 z m 226.3934,14.16 c 4.9435,-3.38853 6.9283,-6.78199 7.4135,-12.67534 0.5423,-6.58546 -0.8075,-10.04557 -5.6309,-14.43429 -6.7718,-6.16162 -7.0348,-5.67742 -7.0348,12.95094 0,11.24825 0.3264,16.3196 1.0505,16.31923 0.5778,-3e-4 2.4686,-0.97254 4.2017,-2.16054 z m -221.1857,-50.83631 c 1.6851,-4.85997 4.4167,-11.44797 6.0702,-14.64 1.6535,-3.19203 3.1524,-6.12769 3.3309,-6.52369 0.6768,-1.50139 -6.0762,-0.63641 -10.0118,1.28239 -7.2166,3.51842 -11.2772,12.41925 -9.0624,19.86448 1.1447,3.84808 4.4491,8.85313 5.8449,8.85313 0.4205,0 2.1432,-3.97634 3.8282,-8.83631 z m 217.2945,6.30633 c 6.6873,-8.56219 3.7546,-21.45226 -5.958,-26.18763 -3.9356,-1.9188 -10.6887,-2.78378 -10.0118,-1.28239 0.1785,0.396 1.6774,3.33166 3.3309,6.52369 1.6535,3.19203 4.3851,9.78003 6.0701,14.64 1.6851,4.85997 3.4078,8.83631 3.8283,8.83631 0.4205,0 1.6537,-1.13849 2.7405,-2.52998 z m -196.3094,-43.13445 c 2.7934,-3.46743 8.0204,-8.74162 11.6156,-11.7204 6.3717,-5.27928 6.4823,-5.44641 4.3812,-6.62156 -2.9166,-1.63128 -10.7176,-1.5838 -13.8794,0.0845 -5.6076,2.95873 -10.6761,10.60038 -10.6761,16.096 0,1.81719 2.4512,8.46591 3.1211,8.46591 0.1973,0 2.6443,-2.83699 5.4376,-6.30443 z m 176.92,-0.0398 c 1.7699,-9.50176 -7.1196,-19.56049 -17.296,-19.57087 -4.2567,-0.004 -9.3471,1.98276 -8.0445,3.14027 0.2613,0.23219 3.4777,3.01016 7.1475,6.17327 3.6698,3.16311 8.6025,8.19925 10.9617,11.19142 3.8183,4.84278 4.4189,5.26217 5.4688,3.81843 0.6486,-0.89203 1.4417,-3.03067 1.7625,-4.75252 z M 1204.8955,835.1253 c 4.1237,-2.05028 10.5002,-4.70011 14.17,-5.88852 8.6099,-2.7882 8.5243,-2.72264 6.4984,-4.97729 -9.343,-10.39756 -28.8985,-2.8217 -28.8985,11.19535 0,1.86903 0.1648,3.39824 0.3662,3.39824 0.2014,0 3.7402,-1.6775 7.8639,-3.72778 z m 107.1065,0.1128 c 0,-13.83566 -19.6301,-21.29319 -28.8985,-10.97861 -2.0162,2.24372 -2.1456,2.14628 6.4984,4.89174 3.6698,1.16558 9.8894,3.7893 13.8213,5.83049 3.9319,2.04119 7.4707,3.74727 7.8639,3.7913 0.3932,0.044 0.7149,-1.54668 0.7149,-3.53492 z m -40.9877,-11.55269 c 0,-1.42411 -3.4063,-6.23713 -6.1066,-8.62493 -6.1947,-5.47787 -16.5322,-5.02368 -22.1697,0.97405 -2.4978,2.65735 -5.0848,6.54172 -5.0854,7.63544 -10e-5,0.16671 7.5062,0.30311 16.6807,0.30311 9.1744,0 16.6809,-0.12945 16.681,-0.28767 z M 248.71324,1056.6621 c -38.84747,-5.6845 -73.11141,-30.3522 -90.52111,-65.16902 -9.2453,-18.48923 -13.10033,-34.67121 -13.15029,-55.2 -0.0632,-25.96092 6.30672,-47.46583 20.3011,-68.53703 22.57026,-33.98381 59.65606,-53.86297 100.48469,-53.86297 31.88899,0 61.01084,11.64828 83.6974,33.47764 66.02304,63.52837 41.33231,174.91638 -45.2399,204.09208 -16.79349,5.6595 -38.52912,7.6931 -55.57189,5.1993 z m 329.32878,0.5661 c -0.78639,-0.1551 -4.64683,-0.8032 -8.57876,-1.44 -41.98004,-6.7994 -79.42477,-39.3717 -93.33623,-81.19109 -8.2101,-24.68045 -8.00892,-55.28525 0.52145,-79.32835 14.93744,-42.10163 50.5462,-72.32852 94.13114,-79.90427 10.73219,-1.86543 29.01042,-1.8816 40.3112,-0.0357 43.85967,7.16429 81.20394,39.44399 95.02261,82.13579 4.6109,14.24505 5.82623,22.37643 5.80335,38.82846 -0.0294,21.12051 -4.22522,38.63251 -13.50285,56.35624 -21.01166,40.14012 -63.01058,65.40962 -107.98038,64.96862 -6.02896,-0.059 -11.60515,-0.2345 -12.39153,-0.3897 z m 324.0862,-0.052 c -1.31064,-0.2339 -4.95661,-0.8775 -8.10215,-1.4304 -41.79589,-7.3457 -78.47882,-39.1068 -92.4193,-80.01939 -6.13612,-18.00827 -8.04178,-42.67456 -4.76086,-61.62308 6.22389,-35.94522 29.53733,-68.34578 61.78096,-85.86194 17.13049,-9.30604 32.17552,-13.33314 52.57447,-14.07259 36.0555,-1.307 65.18606,10.05651 90.14966,35.16636 18.0726,18.17849 28.464,37.40543 33.8873,62.70077 2.3968,11.17905 2.373,36.48151 -0.045,47.77745 -10.3804,48.49542 -46.37043,84.91292 -94.46079,95.58272 -6.42044,1.4245 -33.57833,2.6768 -38.60439,1.7801 z M 1243.565,713.57975 c -15.4439,-4.3756 -42.994,-21.58389 -56.2623,-35.14237 -6.3794,-6.5189 -16.2469,-21.27995 -20.6689,-30.91915 -9.0665,-19.76334 -12.8965,-37.89106 -13.572,-64.23809 -0.5585,-21.78042 0.4197,-32.26445 4.6213,-49.52854 6.4378,-26.45261 17.4777,-46.31032 34.5566,-62.15727 20.8867,-19.38018 45.4933,-32.10125 62.094,-32.10125 16.8839,0 43.8557,14.10734 62.4043,32.64 17.0919,17.0772 30.1832,42.97625 36.3942,72 2.9601,13.83254 3.2145,48.97952 0.462,63.84 -4.8482,26.17572 -17.5629,53.4469 -33.0017,70.78348 -9.245,10.38146 -33.5475,26.4935 -49.0996,32.55204 -9.2739,3.61276 -20.0885,4.49223 -27.9279,2.27115 z m -37.5059,-45.05467 c 2.5005,-1.3023 4.9042,-5.02555 4.9042,-7.59645 0,-0.65676 -2.1666,-4.63243 -4.8146,-8.83483 -9.3648,-14.86177 -15.5038,-30.96387 -18.4413,-48.36989 -1.9503,-11.55647 -1.9856,-32.65063 -0.073,-43.86508 3.0943,-18.14734 11.307,-38.69038 20.8499,-52.15322 3.552,-5.01117 4.3858,-6.9591 4.3858,-10.24634 0,-7.27662 -6.9211,-12.70671 -13.7496,-10.78754 -10.1652,2.85697 -24.2908,29.80906 -30.2252,57.67081 -2.4967,11.72172 -3.4747,40.81594 -1.8207,54.16503 3.2413,26.16007 14.4206,53.77925 27.2087,67.22092 4.3181,4.53879 7.143,5.20963 11.7762,2.79659 z m 106.136,-1.21438 c 3.0646,-2.78125 11.0106,-15.18584 15.4754,-24.15912 20.0047,-40.20484 20.0013,-91.65834 -0.01,-131.797 -5.0416,-10.11302 -10.3905,-18.37758 -14.2009,-21.9415 -1.9469,-1.82098 -3.5999,-2.4 -6.8517,-2.4 -3.7317,0 -4.7078,0.46364 -7.5488,3.5859 -4.8812,5.36437 -4.5553,9.07497 1.5656,17.82488 14.2963,20.43653 21.8609,45.74875 21.8609,73.14922 0,25.84105 -6.4457,49.21791 -19.01,68.94439 -5.5323,8.68588 -6.2352,12.9441 -2.6752,16.20608 1.1796,1.08083 2.7881,2.21101 3.5745,2.51151 2.0165,0.77057 5.9032,-0.18604 7.8187,-1.92436 z M 932.15386,370.71386 c -19.43926,-2.04136 -37.26571,-9.21507 -54.01212,-21.73553 -11.08476,-8.28753 -16.04769,-17.79169 -16.04769,-30.73182 v -7.05454 l -5.95665,-1.11566 c -7.23073,-1.3543 -12.48608,-4.84071 -16.61609,-11.02314 -5.60981,-8.39763 -11.74722,-27.25912 -15.21543,-46.76009 -2.32021,-13.04607 -2.31223,-42.01805 0.0155,-56.16 3.35805,-20.40172 10.50877,-41.4369 16.80994,-49.44959 3.50873,-4.46176 11.55341,-8.6605 17.01344,-8.87978 l 3.94931,-0.15862 v -7.30499 c 0,-11.59452 3.5168,-19.92733 11.55377,-27.37583 10.00082,-9.268547 25.00504,-17.463889 40.40058,-22.06689 12.20238,-3.648302 32.20251,-4.354701 45.38457,-1.602971 17.52661,3.658647 36.20624,13.265453 47.98561,24.678671 7.3543,7.12569 10.0295,13.45756 10.7485,25.44 l 0.4897,8.16 3.7974,0.2709 c 8.2856,0.59107 16.2511,6.56275 20.6907,15.51151 2.7909,5.6256 7.5639,19.65182 9.9833,29.33759 4.4311,17.73948 5.7111,46.89511 2.9253,66.63514 -2.4162,17.12124 -9.1666,39.81428 -14.3054,48.0902 -3.509,5.6514 -9.4489,10.34396 -15.2395,12.03933 -2.9331,0.85877 -5.8959,1.34379 -6.584,1.07785 -0.9517,-0.36782 -1.3704,1.50786 -1.7491,7.83697 -0.8796,14.69749 -5.1286,22.33018 -17.6218,31.65511 -12.32844,9.20193 -26.70681,15.78287 -41.23377,18.87259 -6.89727,1.46697 -21.30646,2.42892 -27.16605,1.81359 z m 28.76323,-33.53655 c 29.33388,-8.56132 53.15651,-33.09185 65.01141,-66.94336 5.6275,-16.0691 7.1537,-25.93859 7.1537,-46.26087 0,-15.31309 -0.3446,-19.85083 -2.1477,-28.27841 -9.7623,-45.62824 -39.56201,-79.24011 -76.71765,-86.5317 -8.41654,-1.6517 -24.06089,-1.15827 -32.54813,1.02658 -36.66406,9.43834 -65.38599,44.53079 -72.97342,89.15893 -2.34307,13.78163 -2.48885,35.39485 -0.3252,48.21543 4.53406,26.86632 15.89254,49.54428 33.62232,67.12917 13.95218,13.83817 29.85157,22.2779 46.82526,24.85584 9.03532,1.37227 22.74129,0.35963 32.09941,-2.37161 z m -31.14622,-1.36195 c -35.66873,-5.69769 -63.99448,-35.18843 -75.61245,-78.72228 -2.89374,-10.84315 -2.94593,-11.43369 -2.92686,-33.12 0.019,-21.57886 0.0858,-22.33057 2.94627,-33.12 7.19181,-27.12725 22.00539,-50.29085 40.86971,-63.90685 8.00834,-5.78031 20.57367,-11.66424 28.52757,-13.35852 9.82229,-2.09227 25.23308,-1.87395 34.40083,0.48734 37.21034,9.5841 65.19916,46.66255 71.00006,94.05803 1.4335,11.71209 0.5392,32.34606 -1.8932,43.68 -7.5459,35.16207 -27.0471,62.94038 -53.64131,76.40883 -4.02892,2.04042 -10.36285,4.55761 -14.07541,5.59375 -7.95157,2.21923 -22.19574,3.18168 -29.59521,1.9997 z m 24.58495,-9.20765 c 32.95041,-6.84101 60.10368,-39.39127 67.46168,-80.87053 1.9569,-11.03147 1.9303,-32.64452 -0.054,-43.8399 -6.5133,-36.74888 -29.80432,-67.79715 -58.36163,-77.7993 -46.30766,-16.21919 -93.35593,17.94009 -104.80195,76.09121 -2.29556,11.66253 -2.3139,36.10185 -0.0357,47.5053 7.28603,36.46914 29.05412,65.41341 57.22762,76.0936 11.76488,4.4599 25.74131,5.4818 38.56393,2.81962 z m 292.35228,44.1124 c -20.5746,-2.34046 -37.1554,-8.80575 -53.0795,-20.69703 -12.3278,-9.20572 -17.367,-18.49289 -17.4268,-32.11691 l -0.03,-6.8669 -4.6659,-0.62464 c -6.1511,-0.82344 -10.8919,-3.35687 -15.1366,-8.08877 -4.2623,-4.75153 -6.2788,-8.67117 -10.1824,-19.79278 -12.2096,-34.7855 -12.8593,-74.94209 -1.8019,-111.36 7.0303,-23.15427 14.4972,-32.22483 27.4974,-33.40295 l 4.2894,-0.38872 -0.3188,-4.40118 c -0.7919,-10.92931 4.5421,-23.95898 12.6438,-30.88616 11.1003,-9.4911 24.7677,-16.857345 39.6241,-21.35599 10.9614,-3.319182 32.9487,-4.201293 44.7403,-1.79494 11.102,2.265606 22.6313,6.692359 31.6535,12.153581 21.1189,12.783489 27.2965,21.309589 28.0575,38.724059 l 0.3324,7.6077 4.0352,0.37877 c 7.9542,0.74663 14.9769,5.5422 19.5005,13.31637 3.1216,5.36453 8.5585,20.69221 10.9814,30.95856 6.1143,25.90699 6.1117,57.94939 -0.01,83.7818 -2.1271,8.98048 -6.9787,23.31234 -9.8675,29.1491 -4.164,8.41301 -12.2756,14.52674 -20.5893,15.51819 l -4.4625,0.53217 0.32,4.03323 c 0.8416,10.61007 -3.959,23.02337 -11.5688,29.91409 -19.6386,17.78279 -50.5361,28.43976 -74.5387,25.70935 z m 22.9399,-32.11417 c 25.4018,-4.70289 50.3652,-25.74266 64.7247,-54.55157 14.0125,-28.11288 17.1424,-66.05047 8.1428,-98.6999 -8.2595,-29.96413 -28.6883,-56.46758 -52.9547,-68.70101 -12.8031,-6.45445 -19.1774,-7.88038 -35.2271,-7.88038 -12.3309,0 -15.275,0.30901 -21.3999,2.24615 -39.9331,12.62972 -68.1599,53.10834 -71.4018,102.39385 -2.5892,39.36204 8.661,73.58244 32.5454,98.99481 12.0877,12.86092 28.297,22.59785 42.9691,25.81148 7.2224,1.58193 25.0061,1.7928 32.6015,0.38657 z m -24.8463,-2.45333 c -19.2665,-3.12475 -37.4427,-13.59011 -51.1901,-29.47394 -39.5305,-45.6737 -38.7378,-122.24824 1.7351,-167.60182 5.3146,-5.95556 17.5283,-15.38092 24.626,-19.00409 36.7759,-18.773 77.7691,-5.89059 103.7681,32.60989 19.7874,29.30214 25.8864,72.28731 15.4185,108.66771 -10.5406,36.63302 -35.2077,63.97668 -65.4558,72.55794 -6.8797,1.95175 -22.9914,3.20287 -28.9018,2.24431 z m 27.6427,-10.43406 c 12.5718,-3.42437 27.5519,-12.96132 37.4385,-23.83487 13.2737,-14.59882 23.1177,-36.4228 26.3655,-58.45201 7.2532,-49.19678 -13.8014,-97.40983 -50.4526,-115.53157 -11.8941,-5.88089 -18.7762,-7.51959 -31.4621,-7.49145 -30.0096,0.0665 -55.4947,17.92682 -71.0668,49.80443 -30.5917,62.62421 -1.2787,143.29949 56.8267,156.39902 8.0908,1.82402 23.9856,1.385 32.3508,-0.89355 z M 247.8885,356.80384 C 232.28115,354.78523 212.37063,347.8317 198.67051,339.61499 183.82898,330.7137 178.6679,323.53496 177.9051,310.73156 l -0.43619,-7.32151 -5.36521,-0.62076 c -11.53389,-1.33447 -19.51606,-7.62839 -25.69146,-20.25763 -17.73866,-36.27718 -17.74315,-81.13455 -0.0117,-116.89909 2.03433,-4.10327 5.18562,-9.11799 7.00285,-11.14381 3.86298,-4.30639 12.20028,-8.29705 19.29257,-9.23444 l 5.00427,-0.66141 v -5.6339 c 0,-14.81359 7.60305,-23.89892 29.07244,-34.74035 39.91678,-20.156839 88.17944,-18.43433 126.72032,4.52269 14.66045,8.73255 19.81785,15.92927 20.39945,28.46571 l 0.33931,7.31398 5.895,0.98381 c 16.06123,2.68043 23.69349,11.36644 31.96955,36.38342 5.06634,15.31461 6.22714,23.13246 6.24878,42.08481 0.022,19.28411 -1.08288,26.47766 -6.66059,43.36463 -7.93321,24.01843 -16.46917,33.43266 -32.06588,35.36516 l -5.38438,0.66716 -0.3497,7.34152 c -0.60233,12.64523 -5.50428,19.71347 -19.60015,28.26197 -25.04029,15.18579 -56.55523,21.68981 -86.39588,17.83032 z m 35.84485,-28.17403 c 64.1025,-11.25835 103.05715,-77.70672 81.68252,-139.33306 -11.78191,-33.96907 -38.65483,-58.72198 -74.12387,-68.2762 -8.20047,-2.20895 -11.00403,-2.48276 -25.42126,-2.48276 -14.40317,0 -17.22505,0.27501 -25.38763,2.47416 -39.22921,10.5691 -67.40735,39.41629 -77.2799,79.11482 -1.76876,7.11234 -2.10196,11.05087 -2.05807,24.32631 0.0458,13.84219 0.35945,16.99919 2.48705,25.03082 3.38907,12.79368 7.39803,22.02382 14.09687,32.45638 15.42288,24.01908 41.6205,41.53021 69.84593,46.68673 9.39644,1.71665 26.39262,1.71796 36.15836,0.003 z m -36.59367,-3.91822 c -31.3551,-5.71487 -60.04176,-28.46504 -73.85199,-58.56886 -7.3454,-16.01166 -10.56548,-38.48773 -8.04723,-56.1694 9.01606,-63.30543 72.92093,-103.06279 133.23545,-82.89023 31.84702,10.65142 56.98018,38.02149 66.05129,71.92998 2.64862,9.90074 3.61207,30.02918 1.94035,40.53779 -3.52158,22.13708 -13.70192,41.77285 -29.82876,57.53353 -15.30566,14.95813 -32.00999,23.77793 -52.4194,27.67717 -9.3126,1.77918 -27.17598,1.75511 -37.07971,-0.05 z m 42.08433,-8.67501 c 50.77245,-12.67368 81.66587,-66.42908 67.58587,-117.60123 -8.78181,-31.91647 -34.44705,-57.29954 -67.10927,-66.37144 -9.80661,-2.72377 -31.09644,-3.38429 -41.38804,-1.28405 -18.62757,3.80137 -34.04607,11.88833 -47.53786,24.93346 -12.76107,12.33861 -20.90152,26.15641 -26.14023,44.37109 -1.88863,6.56666 -2.17592,9.72927 -2.17,23.88867 0.005,12.90791 0.38031,17.72498 1.79324,23.04 13.71748,51.60104 63.9481,81.75853 114.96629,69.0235 z m 300.25634,40.38032 c -24.94831,-3.97288 -53.79768,-17.77903 -61.88318,-29.61481 -3.54618,-5.19098 -6.20377,-14.9005 -5.42351,-19.81481 l 0.56251,-3.54285 -5.68227,-0.59815 c -15.89738,-1.67347 -24.99319,-12.14773 -33.26897,-38.31082 -4.12444,-13.039 -5.82006,-24.86801 -5.82453,-40.63321 -0.006,-21.31901 3.96446,-39.55852 12.59327,-57.85031 6.06167,-12.84983 14.31668,-19.33633 26.48388,-20.81013 l 5.24257,-0.63502 0.0766,-6.39685 c 0.1342,-11.20501 4.90816,-19.3625 15.40882,-26.32975 13.53988,-8.9838 30.34382,-15.856149 47.90201,-19.590596 11.21093,-2.38445 38.02322,-2.382647 49.88952,0.0034 16.96236,3.410686 38.74322,12.607246 50.43577,21.295546 8.49478,6.31217 13.10489,15.43638 13.10489,25.93692 v 4.96384 l 6.12223,1.02173 c 11.81073,1.97108 18.35792,6.91647 24.24534,18.31363 4.98448,9.64921 10.0683,24.91976 12.19423,36.62847 2.43568,13.41474 2.20417,36.73674 -0.49258,49.62087 -3.73414,17.84042 -11.2355,36.09624 -17.87198,43.49447 -4.26813,4.75804 -11.64716,8.41635 -18.59856,9.22062 l -5.36305,0.6205 -0.43981,6.84177 c -0.81562,12.68776 -6.06297,20.36705 -19.50451,28.54409 -14.85953,9.03966 -31.38455,15.01894 -48.92133,17.70129 -11.07347,1.69375 -30.08249,1.65675 -40.98738,-0.0798 z m 47.02797,-29.61926 c 10.69402,-2.77871 25.92689,-9.85937 34.78686,-16.1699 12.20967,-8.69636 24.62553,-22.7869 31.94574,-36.25466 14.91301,-27.43702 16.48489,-62.38273 4.13281,-91.87973 -10.07399,-24.0569 -31.97178,-46.05086 -55.79373,-56.03876 -27.03952,-11.33695 -58.39944,-10.9502 -84.66485,1.04413 -15.70818,7.17328 -34.25298,22.99856 -43.51769,37.13599 -11.21794,17.11795 -16.75008,34.36288 -17.54644,54.69625 -0.58603,14.96323 0.68369,25.29019 4.54886,36.9969 12.60013,38.16294 43.7286,65.39069 82.71962,72.354 11.38396,2.03303 31.71016,1.15034 43.38882,-1.88422 z m -41.3088,-1.24463 c -33.23641,-5.55948 -62.5862,-27.8311 -76.8103,-58.28629 -15.10154,-32.3339 -12.18817,-69.86601 7.76795,-100.07235 34.67628,-52.4873 106.79891,-60.90239 153.81669,-17.94693 22.9684,20.98393 36.00284,57.17292 31.57563,87.66697 -3.54285,24.40267 -12.76634,42.83277 -30.03685,60.01867 -20.02861,19.93049 -43.29339,29.4059 -71.5386,29.13665 -6.81534,-0.065 -13.46388,-0.29749 -14.77452,-0.51672 z m 41.40293,-10.29663 c 16.07907,-4.86723 28.15109,-12.09316 40.21612,-24.07211 30.94973,-30.7289 36.79274,-78.87544 14.15019,-116.59788 -12.0985,-20.15608 -33.35159,-36.1468 -56.21166,-42.29337 -9.87324,-2.65469 -28.20508,-3.59103 -38.32746,-1.95765 -38.079,6.14454 -67.36905,32.96138 -77.10864,70.59771 -3.12644,12.08142 -3.52163,30.95322 -0.90463,43.2 5.7253,26.79272 24.24724,51.29403 48.18731,63.74343 16.51918,8.59036 26.08237,10.71805 46.22994,10.28559 13.21384,-0.28363 16.38893,-0.67178 23.76883,-2.90572 z"
       id="path7" />
  </g>
</svg>
