<?xml version="1.0" encoding="UTF-8" standalone="no"?>
<!-- Created with Inkscape (http://www.inkscape.org/) -->

<svg
   width="42712.688"
   height="37700.414"
   viewBox="0 0 42712.688 37700.414"
   version="1.1"
   id="svg1"
   inkscape:version="1.4 (e7c3feb1, 2024-10-09)"
   sodipodi:docname="logo-minka-modern5.svg"
   inkscape:export-filename="logo-minka-modern.svg"
   inkscape:export-xdpi="96"
   inkscape:export-ydpi="96"
   xmlns:inkscape="http://www.inkscape.org/namespaces/inkscape"
   xmlns:sodipodi="http://sodipodi.sourceforge.net/DTD/sodipodi-0.dtd"
   xmlns:xlink="http://www.w3.org/1999/xlink"
   xmlns="http://www.w3.org/2000/svg"
   xmlns:svg="http://www.w3.org/2000/svg">
  <sodipodi:namedview
     id="namedview1"
     pagecolor="#ffffff"
     bordercolor="#000000"
     borderopacity="0.25"
     inkscape:showpageshadow="2"
     inkscape:pageopacity="0.0"
     inkscape:pagecheckerboard="false"
     inkscape:deskcolor="#ffffff"
     inkscape:document-units="px"
     inkscape:zoom="0.01"
     inkscape:cx="24600"
     inkscape:cy="16050"
     inkscape:window-width="1440"
     inkscape:window-height="776"
     inkscape:window-x="0"
     inkscape:window-y="25"
     inkscape:window-maximized="0"
     inkscape:current-layer="layer1"
     showguides="true"
     showgrid="true"
     inkscape:export-bgcolor="#ffffff00"
     inkscape:clip-to-page="true"
     inkscape:antialias-rendering="true" />
  <defs
     id="defs1">
    <color-profile
       name="SMPTE-RP-431-2-2007-DCI-P3"
       xlink:href="file:///System/Library/ColorSync/Profiles/DCI(P3)%20RGB.icc"
       id="color-profile1" />
    <linearGradient
       id="linearGradient36"
       inkscape:collect="always">
      <stop
         style="stop-color:#000000;stop-opacity:0;"
         offset="0"
         id="stop36" />
      <stop
         style="stop-color:#000000;stop-opacity:0;"
         offset="1"
         id="stop37" />
    </linearGradient>
    <rect
       x="104500"
       y="2900"
       width="14500"
       height="9100"
       id="rect36" />
    <rect
       x="-17400"
       y="16600"
       width="49500"
       height="9500"
       id="rect35" />
    <rect
       x="-15900"
       y="13100"
       width="2900"
       height="8200"
       id="rect32" />
    <rect
       x="-39500"
       y="19000"
       width="59700"
       height="7800"
       id="rect4" />
    <rect
       x="-14900"
       y="17300"
       width="11500"
       height="1700"
       id="rect27" />
    <rect
       x="-19300"
       y="18700"
       width="49600"
       height="8200"
       id="rect26" />
    <rect
       x="-23500"
       y="17500"
       width="48200"
       height="4400"
       id="rect23" />
    <rect
       x="-19800"
       y="18500"
       width="47300"
       height="4700"
       id="rect22" />
    <rect
       x="-26100"
       y="16400"
       width="60700"
       height="7100"
       id="rect20" />
    <rect
       x="-25400"
       y="14900"
       width="59300"
       height="11200"
       id="rect19" />
    <rect
       x="-20800"
       y="18100"
       width="47500"
       height="3000"
       id="rect18" />
    <rect
       x="-22300"
       y="16500"
       width="52700"
       height="6900"
       id="rect17" />
    <rect
       x="-19400"
       y="16800"
       width="45700"
       height="6500"
       id="rect15" />
    <rect
       x="-16146.436"
       y="15421.108"
       width="11668.323"
       height="9523.875"
       id="rect14" />
    <rect
       x="-16745.621"
       y="17470.949"
       width="94.608025"
       height="1324.5125"
       id="rect13" />
    <rect
       x="-20119.973"
       y="16304.116"
       width="10974.531"
       height="3185.1367"
       id="rect12" />
    <rect
       x="-21665.238"
       y="14191.204"
       width="18574.709"
       height="10816.851"
       id="rect11" />
    <rect
       x="-21264.965"
       y="18361.896"
       width="43763.73"
       height="6531.9004"
       id="rect10" />
    <rect
       x="-20684.352"
       y="17055.518"
       width="41150.973"
       height="6531.9004"
       id="rect9" />
    <rect
       x="-20756.928"
       y="16692.635"
       width="43836.309"
       height="7475.397"
       id="rect8" />
    <color-profile
       name="SMPTE-RP-431-2-2007-DCI-P3"
       xlink:href="file:///System/Library/ColorSync/Profiles/DCI(P3)%20RGB.icc"
       id="color-profile2" />
    <linearGradient
       inkscape:collect="always"
       xlink:href="#linearGradient36"
       id="linearGradient37"
       x1="-17399.936"
       y1="16601.252"
       x2="-17383.141"
       y2="16601.252"
       gradientUnits="userSpaceOnUse" />
  </defs>
  <g
     inkscape:label="Capa 1"
     inkscape:groupmode="layer"
     id="layer1"
     style="display:inline"
     transform="translate(19233.153,9003.1215)">
    <rect
       style="fill:#000000;stroke:#000000;stroke-width:0.946183;stroke-opacity:1"
       id="rect2"
       width="17821.102"
       height="31445.297"
       x="-6510.5508"
       y="-9002.6484" />
    <path
       style="fill:#ffffff;fill-opacity:1;stroke:#fafafa;stroke-width:1.18159;stroke-opacity:1"
       d="M 8780.961,-6622.545 -6581.4237,-8986.881 -6563.2384,22487.198 8921.106,20064.675 8769.7688,-6625.754 Z"
       id="path5"
       sodipodi:nodetypes="cccccc" />
    <path
       d="m -17399.137,16602.155 -0.571,-1.348 v 0 1.136 q 0,0.09 0.03,0.123 0.03,0.03 0.119,0.04 h 0.05 v 0.01 q -0.04,0 -0.09,0 -0.05,0 -0.114,0 -0.04,0 -0.07,0 -0.03,0 -0.06,0 -0.03,0 -0.05,0 v -0.01 h 0.04 q 0.06,0 0.09,-0.02 0.03,-0.01 0.04,-0.05 0.01,-0.03 0.01,-0.1 v -1.038 q 0,-0.06 -0.01,-0.1 0,-0.03 -0.04,-0.05 -0.03,-0.02 -0.09,-0.02 h -0.04 v -0.01 q 0.03,0 0.07,0 0.04,0 0.09,0 0.05,0 0.105,0 h 0.03 q 0.03,0 0.05,0 0.02,0 0.04,0 l 0.499,1.183 h -0.02 l 0.426,-1.191 q 0.04,0 0.07,0 0.03,0 0.05,0 h 0.02 q 0.06,0 0.106,0 0.05,0 0.08,0 0.04,0 0.07,0 v 0.01 h -0.04 q -0.06,0 -0.09,0.02 -0.03,0.01 -0.04,0.05 -0.01,0.03 -0.01,0.1 v 1.038 q 0,0.06 0.01,0.1 0.01,0.03 0.04,0.05 0.03,0.01 0.09,0.02 h 0.04 v 0.01 q -0.03,0 -0.07,0 -0.04,0 -0.08,0 -0.05,0 -0.106,0 h -0.02 -0.02 q -0.05,0 -0.101,0 -0.05,0 -0.09,0 -0.04,0 -0.06,0 v -0.01 h 0.04 q 0.06,0 0.08,-0.02 0.03,-0.01 0.04,-0.05 0.01,-0.03 0.01,-0.1 v -1.199 0 l -0.503,1.411 z m 1.234,-0.536 v -0.346 q 0,-0.08 -0.03,-0.11 -0.03,-0.03 -0.112,-0.04 h -0.03 v -0.01 q 0.05,0 0.07,0 0.03,0 0.06,0 0.07,0 0.127,0 0.06,0 0.105,-0.02 v 0.02 0.513 z m 0.09,0.503 q -0.07,0 -0.133,0 -0.06,0 -0.133,0 v -0.01 h 0.03 q 0.08,0 0.106,-0.04 0.03,-0.03 0.03,-0.108 v -0.345 h 0.19 v 0.345 q 0,0.08 0.03,0.108 0.03,0.03 0.106,0.04 h 0.03 v 0.01 q -0.07,0 -0.135,0 -0.06,0 -0.129,0 v 0 z m 0,-1.271 q -0.05,0 -0.08,-0.03 -0.03,-0.03 -0.03,-0.08 0,-0.05 0.03,-0.08 0.03,-0.03 0.08,-0.03 0.05,0 0.08,0.04 0.03,0.03 0.03,0.08 0,0.05 -0.03,0.08 -0.03,0.03 -0.08,0.03 z m 0.661,1.271 q -0.07,0 -0.133,0 -0.06,0 -0.133,0 v -0.01 h 0.03 q 0.08,0 0.106,-0.04 0.03,-0.03 0.03,-0.108 v -0.345 h 0.19 v 0.345 q 0,0.08 0.03,0.11 0.03,0.03 0.104,0.04 h 0.03 v 0.01 q -0.07,0 -0.13,0 -0.06,0 -0.125,0 v 0 z m -0.09,-0.503 v -0.346 q 0,-0.08 -0.03,-0.11 -0.03,-0.03 -0.112,-0.04 h -0.03 v -0.01 q 0.05,0 0.07,0 0.03,0 0.06,0 0.07,0 0.127,0 0.06,0 0.105,-0.02 v 0.02 0.513 z m 0.654,0 v -0.199 q 0,-0.149 -0.05,-0.225 -0.05,-0.08 -0.155,-0.08 -0.1,0 -0.177,0.07 -0.08,0.06 -0.131,0.195 v 0 q 0.06,-0.151 0.153,-0.223 0.1,-0.07 0.237,-0.07 0.155,0 0.236,0.101 0.08,0.1 0.08,0.286 v 0.156 z m 0.1,0.503 q -0.07,0 -0.125,0 -0.06,0 -0.129,0 v -0.01 h 0.03 q 0.07,0 0.103,-0.04 0.03,-0.03 0.03,-0.11 v -0.345 h 0.191 v 0.345 q 0,0.08 0.03,0.108 0.03,0.03 0.106,0.04 h 0.03 v 0.01 q -0.07,0 -0.134,0 -0.06,0 -0.131,0 v 0 z m 0.658,0 q -0.07,0 -0.133,0 -0.06,0 -0.133,0 v -0.01 h 0.03 q 0.08,0 0.105,-0.04 0.03,-0.03 0.03,-0.108 v -0.345 h 0.191 v 0.345 q 0,0.08 0.03,0.11 0.03,0.03 0.104,0.04 h 0.02 v 0.01 q -0.07,0 -0.128,0 -0.06,0 -0.125,0 v 0 z m -0.1,-0.503 v -0.861 q 0,-0.08 -0.03,-0.11 -0.03,-0.03 -0.111,-0.04 h -0.03 v -0.01 q 0.05,0 0.07,0 0.03,0 0.06,0 0.07,0 0.127,0 0.06,0 0.106,-0.02 v 0.02 1.028 z m 0.539,0.509 v -0.02 q 0.07,-0.01 0.09,-0.04 0.02,-0.03 -0.01,-0.09 l -0.111,-0.228 q -0.05,-0.102 -0.1,-0.138 -0.05,-0.04 -0.135,-0.04 h -0.1 v -0.01 h 0.1 q 0.07,0 0.129,-0.02 0.06,-0.02 0.112,-0.09 l 0.06,-0.07 q 0.05,-0.06 0.06,-0.102 0.02,-0.05 0,-0.08 -0.02,-0.04 -0.07,-0.06 -0.05,-0.02 -0.133,-0.03 v -0.01 q 0.05,0 0.117,0 0.07,0 0.154,0 0.05,0 0.09,0 0.04,0 0.08,0 0.03,0 0.07,0 v 0.01 q -0.06,0.02 -0.111,0.05 -0.05,0.02 -0.09,0.06 -0.04,0.04 -0.09,0.1 l -0.187,0.213 0.01,-0.03 q 0.05,0.01 0.09,0.04 0.04,0.03 0.07,0.07 0.03,0.05 0.07,0.132 l 0.09,0.173 q 0.04,0.07 0.07,0.113 0.03,0.04 0.06,0.05 0.03,0.01 0.09,0.02 v 0.02 q -0.07,0 -0.112,0 -0.04,0 -0.07,0 -0.03,0 -0.06,0 -0.04,0 -0.09,0 -0.05,0 -0.141,0 z m 1.19,-0.509 v -0.301 q 0,-0.111 -0.05,-0.167 -0.05,-0.06 -0.157,-0.06 -0.08,0 -0.135,0.02 -0.06,0.03 -0.06,0.06 0,0.02 0.01,0.05 0.02,0.03 0.03,0.06 0.02,0.03 0.02,0.06 0,0.04 -0.03,0.06 -0.03,0.02 -0.07,0.02 -0.05,0 -0.08,-0.03 -0.03,-0.03 -0.03,-0.08 0,-0.07 0.05,-0.123 0.05,-0.05 0.143,-0.08 0.09,-0.03 0.201,-0.03 0.183,0 0.264,0.09 0.08,0.09 0.08,0.284 v 0.17 z m -0.318,0.536 q -0.128,0 -0.203,-0.06 -0.07,-0.07 -0.07,-0.179 0,-0.09 0.04,-0.145 0.04,-0.06 0.111,-0.09 0.07,-0.03 0.144,-0.06 0.08,-0.02 0.145,-0.04 0.07,-0.02 0.111,-0.05 0.04,-0.03 0.04,-0.08 v 0.03 q -0.01,0.04 -0.05,0.07 -0.04,0.03 -0.1,0.06 -0.06,0.03 -0.112,0.06 -0.06,0.03 -0.09,0.09 -0.04,0.05 -0.04,0.137 0,0.09 0.05,0.143 0.05,0.05 0.131,0.05 0.07,0 0.121,-0.03 0.06,-0.03 0.1,-0.1 v 0.02 q -0.06,0.1 -0.141,0.142 -0.08,0.04 -0.185,0.04 z m 0.511,-0.127 q 0,0.05 0.01,0.07 0.01,0.02 0.05,0.02 0.03,0 0.06,-0.02 0.03,-0.02 0.06,-0.04 v 0.01 q -0.05,0.04 -0.09,0.06 -0.04,0.02 -0.107,0.02 -0.09,0 -0.14,-0.04 -0.05,-0.04 -0.05,-0.134 v -0.359 h 0.193 z m 1.622,0.127 -0.571,-1.348 v 0 1.136 q 0,0.09 0.03,0.123 0.03,0.03 0.119,0.04 h 0.05 v 0.01 q -0.04,0 -0.09,0 -0.05,0 -0.113,0 -0.04,0 -0.07,0 -0.03,0 -0.06,0 -0.03,0 -0.05,0 v -0.01 h 0.04 q 0.06,0 0.09,-0.02 0.03,-0.01 0.04,-0.05 0.01,-0.03 0.01,-0.1 v -1.038 q 0,-0.06 -0.01,-0.1 -0.01,-0.03 -0.04,-0.05 -0.03,-0.02 -0.08,-0.02 h -0.04 v -0.01 q 0.03,0 0.07,0 0.04,0 0.09,0 0.05,0 0.106,0 h 0.03 q 0.03,0 0.05,0 0.02,0 0.04,0 l 0.499,1.183 h -0.02 l 0.426,-1.191 q 0.04,0 0.07,0 0.03,0 0.05,0 h 0.02 q 0.06,0 0.105,0 0.05,0 0.09,0 0.04,0 0.07,0 v 0.01 h -0.04 q -0.06,0 -0.09,0.02 -0.03,0.01 -0.04,0.05 -0.01,0.03 -0.01,0.1 v 1.038 q 0,0.06 0.01,0.1 0.01,0.03 0.04,0.05 0.03,0.01 0.09,0.02 h 0.04 v 0.01 q -0.03,0 -0.07,0 -0.04,0 -0.09,0 -0.05,0 -0.105,0 h -0.02 -0.02 q -0.05,0 -0.101,0 -0.05,0 -0.09,0 -0.04,0 -0.06,0 v -0.01 h 0.04 q 0.06,0 0.08,-0.02 0.03,-0.01 0.04,-0.05 0.01,-0.03 0.01,-0.1 v -1.199 0 l -0.503,1.411 z m 1.555,0 q -0.135,0 -0.245,-0.06 -0.107,-0.06 -0.171,-0.177 -0.06,-0.12 -0.06,-0.304 0,-0.185 0.06,-0.305 0.06,-0.121 0.171,-0.179 0.11,-0.06 0.245,-0.06 0.137,0 0.244,0.06 0.108,0.06 0.169,0.179 0.06,0.12 0.06,0.305 0,0.184 -0.06,0.304 -0.06,0.119 -0.169,0.177 -0.107,0.06 -0.244,0.06 z m 0,-0.01 q 0.119,0 0.195,-0.125 0.08,-0.127 0.08,-0.399 0,-0.273 -0.08,-0.4 -0.08,-0.127 -0.195,-0.127 -0.119,0 -0.195,0.127 -0.08,0.127 -0.08,0.4 0,0.272 0.08,0.399 0.08,0.125 0.195,0.125 z m 1.161,0.01 q -0.127,0 -0.222,-0.06 -0.09,-0.07 -0.145,-0.187 -0.05,-0.121 -0.05,-0.286 0,-0.17 0.06,-0.291 0.06,-0.123 0.16,-0.187 0.103,-0.06 0.242,-0.06 0.115,0 0.191,0.05 0.08,0.05 0.09,0.112 v 0.01 q -0.01,-0.06 -0.08,-0.1 -0.06,-0.04 -0.149,-0.04 -0.145,0 -0.225,0.132 -0.08,0.131 -0.08,0.37 0,0.234 0.08,0.367 0.08,0.132 0.213,0.132 0.09,0 0.153,-0.05 0.07,-0.05 0.101,-0.131 v 0.01 q -0.03,0.09 -0.123,0.155 -0.09,0.06 -0.213,0.06 z m 0.309,-0.03 v -0.509 h 0.19 v 0.341 q 0,0.08 0.03,0.11 0.03,0.03 0.114,0.04 h 0.02 v 0.01 q -0.04,0 -0.07,0 -0.03,0 -0.05,0 -0.07,0 -0.127,0 -0.06,0 -0.105,0.02 z m 0,-0.509 v -0.861 q 0,-0.08 -0.03,-0.11 -0.03,-0.03 -0.112,-0.04 h -0.03 v -0.01 q 0.05,0 0.07,0 0.03,0 0.06,0 0.07,0 0.127,0 0.06,0 0.105,-0.02 v 0.02 1.028 z m 0.968,0.536 q -0.138,0 -0.243,-0.06 -0.103,-0.07 -0.163,-0.189 -0.06,-0.121 -0.06,-0.284 0,-0.162 0.06,-0.283 0.06,-0.123 0.167,-0.191 0.109,-0.07 0.256,-0.07 0.122,0 0.211,0.05 0.09,0.05 0.141,0.144 0.05,0.1 0.05,0.24 h -0.752 v -0.01 h 0.555 q 0,-0.113 -0.02,-0.205 -0.02,-0.09 -0.07,-0.145 -0.05,-0.05 -0.122,-0.05 -0.1,0 -0.173,0.1 -0.07,0.1 -0.09,0.308 v 0 q 0,0.03 0,0.06 0,0.03 0,0.05 0,0.232 0.09,0.365 0.09,0.132 0.246,0.132 0.101,0 0.189,-0.06 0.09,-0.06 0.137,-0.177 h 0.01 q -0.05,0.129 -0.159,0.205 -0.109,0.07 -0.258,0.07 z m 0.831,-0.03 q -0.07,0 -0.134,0 -0.06,0 -0.133,0 v -0.01 h 0.03 q 0.08,0 0.105,-0.04 0.03,-0.03 0.03,-0.108 v -0.345 h 0.191 v 0.345 q 0,0.05 0.01,0.08 0.01,0.03 0.04,0.04 0.03,0.01 0.08,0.02 h 0.06 v 0.01 q -0.05,0 -0.104,0 -0.05,0 -0.1,0 -0.05,0 -0.1,0 v 0 z m -0.1,-0.503 v -0.346 q 0,-0.08 -0.03,-0.11 -0.03,-0.03 -0.111,-0.04 h -0.03 v -0.01 q 0.05,0 0.07,0 0.03,0 0.06,0 0.07,0 0.128,0 0.06,0 0.105,-0.02 v 0.02 0.513 z m 0.567,-0.239 q -0.04,0 -0.07,-0.02 -0.02,-0.02 -0.02,-0.06 0,-0.03 0.01,-0.05 0.01,-0.02 0.02,-0.04 0.01,-0.02 0.01,-0.04 0,-0.05 -0.06,-0.05 -0.05,0 -0.1,0.02 -0.05,0.02 -0.1,0.06 -0.04,0.04 -0.07,0.08 v -0.02 q 0.05,-0.09 0.135,-0.136 0.09,-0.05 0.179,-0.05 0.09,0 0.135,0.04 0.05,0.05 0.05,0.124 0,0.06 -0.03,0.1 -0.03,0.04 -0.09,0.04 z m 0.493,0.742 q -0.07,0 -0.133,0 -0.06,0 -0.133,0 v -0.01 h 0.03 q 0.07,0 0.105,-0.04 0.03,-0.03 0.03,-0.108 v -0.345 h 0.191 v 0.345 q 0,0.08 0.03,0.11 0.03,0.03 0.103,0.04 h 0.03 v 0.01 q -0.07,0 -0.129,0 -0.06,0 -0.126,0 v 0 z m -0.1,-0.503 v -0.346 q 0,-0.08 -0.03,-0.11 -0.03,-0.03 -0.111,-0.04 h -0.03 v -0.01 q 0.05,0 0.07,0 0.03,0 0.06,0 0.07,0 0.127,0 0.06,0 0.106,-0.02 v 0.02 0.513 z m 0.654,0 v -0.199 q 0,-0.149 -0.05,-0.225 -0.05,-0.08 -0.155,-0.08 -0.1,0 -0.177,0.07 -0.08,0.06 -0.131,0.195 v 0 q 0.06,-0.151 0.153,-0.223 0.1,-0.07 0.237,-0.07 0.155,0 0.236,0.101 0.08,0.1 0.08,0.286 v 0.156 z m 0.1,0.503 q -0.06,0 -0.125,0 -0.06,0 -0.129,0 v -0.01 h 0.03 q 0.07,0 0.103,-0.04 0.03,-0.03 0.03,-0.11 v -0.345 h 0.191 v 0.345 q 0,0.08 0.03,0.108 0.03,0.03 0.105,0.04 h 0.03 v 0.01 q -0.07,0 -0.133,0 -0.06,0 -0.132,0 v 0 z"
       id="text35"
       style="font-size:2.46553px;font-family:Playfair;-inkscape-font-specification:Playfair;letter-spacing:0.00474272px;white-space:pre;fill-opacity:0;stroke:#000000;stroke-width:0.175157;stroke-linecap:square;stroke-linejoin:round;stroke-dasharray:0.0437892, 0.0437892;paint-order:markers stroke fill"
       transform="matrix(2969.2193,0,0,2088.749,51645125,-34649237)"
       aria-label="Minka Modern" />
    <ellipse
       style="fill:#000000;fill-opacity:1;stroke:#fafafa;stroke-width:325.809;stroke-linecap:square;stroke-linejoin:bevel;stroke-dasharray:81.4533, 81.4533;stroke-dashoffset:0;stroke-opacity:1;paint-order:markers stroke fill"
       id="path41"
       cx="7175.5063"
       cy="8147.4717"
       rx="825.55939"
       ry="822.37146" />
  </g>
</svg>
