<?xml version="1.0" encoding="UTF-8" standalone="no"?>
<!-- Created with Inkscape (http://www.inkscape.org/) -->

<svg
   width="37585.922"
   height="37699.082"
   viewBox="0 0 37585.922 37699.082"
   version="1.1"
   id="svg1"
   xmlns:xlink="http://www.w3.org/1999/xlink"
   xmlns="http://www.w3.org/2000/svg"
   xmlns:svg="http://www.w3.org/2000/svg">
  <defs
     id="defs1">
    <color-profile
       name="SMPTE-RP-431-2-2007-DCI-P3"
       xlink:href="file:///System/Library/ColorSync/Profiles/DCI(P3)%20RGB.icc"
       id="color-profile3" />
    <color-profile
       name="SMPTE-RP-431-2-2007-DCI-P3"
       xlink:href="file:///System/Library/ColorSync/Profiles/DCI(P3)%20RGB.icc"
       id="color-profile4" />
  </defs>
  <g
     id="layer1"
     style="display:inline"
     transform="translate(16692.725,9003.1215)">
    <rect
       style="fill:#000000;stroke:#000000;stroke-width:0.946183;stroke-opacity:1"
       id="rect2"
       width="17821.102"
       height="31445.297"
       x="-6510.5508"
       y="-9002.6484" />
    <path
       style="fill:#ffffff;fill-opacity:1;stroke:#fafafa;stroke-width:1.18159;stroke-opacity:1"
       d="M 8780.961,-6622.545 -6581.4237,-8986.881 -6563.2384,22487.198 8921.106,20064.675 8769.7688,-6625.754 Z"
       id="path5" />
    <path
       style="font-size:2.46553px;font-family:Playfair;-inkscape-font-specification:'Playfair, @opsz=512';font-variation-settings:'opsz' 512;letter-spacing:0.00474272px;white-space:pre;fill-opacity:0;stroke:#000000;stroke-width:0.175157;stroke-linecap:square;stroke-linejoin:round;stroke-dasharray:0.0437892, 0.0437892;paint-order:markers stroke fill"
       d="m -17399.137,16602.155 -0.571,-1.348 v 0 1.136 q 0,0.09 0.03,0.123 0.03,0.03 0.119,0.04 h 0.05 v 0.01 q -0.04,0 -0.09,0 -0.05,0 -0.114,0 -0.04,0 -0.07,0 -0.03,0 -0.06,0 -0.03,0 -0.05,0 v -0.01 h 0.04 q 0.06,0 0.09,-0.02 0.03,-0.01 0.04,-0.05 0.01,-0.03 0.01,-0.1 v -1.038 q 0,-0.06 -0.01,-0.1 0,-0.03 -0.04,-0.05 -0.03,-0.02 -0.09,-0.02 h -0.04 v -0.01 q 0.03,0 0.07,0 0.04,0 0.09,0 0.05,0 0.105,0 h 0.03 q 0.03,0 0.05,0 0.02,0 0.04,0 l 0.499,1.183 h -0.02 l 0.426,-1.191 q 0.04,0 0.07,0 0.03,0 0.05,0 h 0.02 q 0.06,0 0.106,0 0.05,0 0.08,0 0.04,0 0.07,0 v 0.01 h -0.04 q -0.06,0 -0.09,0.02 -0.03,0.01 -0.04,0.05 -0.01,0.03 -0.01,0.1 v 1.038 q 0,0.06 0.01,0.1 0.01,0.03 0.04,0.05 0.03,0.01 0.09,0.02 h 0.04 v 0.01 q -0.03,0 -0.07,0 -0.04,0 -0.08,0 -0.05,0 -0.106,0 h -0.02 -0.02 q -0.05,0 -0.101,0 -0.05,0 -0.09,0 -0.04,0 -0.06,0 v -0.01 h 0.04 q 0.06,0 0.08,-0.02 0.03,-0.01 0.04,-0.05 0.01,-0.03 0.01,-0.1 v -1.199 0 l -0.503,1.411 z m 1.234,-0.536 v -0.346 q 0,-0.08 -0.03,-0.11 -0.03,-0.03 -0.112,-0.04 h -0.03 v -0.01 q 0.05,0 0.07,0 0.03,0 0.06,0 0.07,0 0.127,0 0.06,0 0.105,-0.02 v 0.02 0.513 z m 0.09,0.503 q -0.07,0 -0.133,0 -0.06,0 -0.133,0 v -0.01 h 0.03 q 0.08,0 0.106,-0.04 0.03,-0.03 0.03,-0.108 v -0.345 h 0.19 v 0.345 q 0,0.08 0.03,0.108 0.03,0.03 0.106,0.04 h 0.03 v 0.01 q -0.07,0 -0.135,0 -0.06,0 -0.129,0 v 0 z m 0,-1.271 q -0.05,0 -0.08,-0.03 -0.03,-0.03 -0.03,-0.08 0,-0.05 0.03,-0.08 0.03,-0.03 0.08,-0.03 0.05,0 0.08,0.04 0.03,0.03 0.03,0.08 0,0.05 -0.03,0.08 -0.03,0.03 -0.08,0.03 z m 0.661,1.271 q -0.07,0 -0.133,0 -0.06,0 -0.133,0 v -0.01 h 0.03 q 0.08,0 0.106,-0.04 0.03,-0.03 0.03,-0.108 v -0.345 h 0.19 v 0.345 q 0,0.08 0.03,0.11 0.03,0.03 0.104,0.04 h 0.03 v 0.01 q -0.07,0 -0.13,0 -0.06,0 -0.125,0 v 0 z m -0.09,-0.503 v -0.346 q 0,-0.08 -0.03,-0.11 -0.03,-0.03 -0.112,-0.04 h -0.03 v -0.01 q 0.05,0 0.07,0 0.03,0 0.06,0 0.07,0 0.127,0 0.06,0 0.105,-0.02 v 0.02 0.513 z m 0.654,0 v -0.199 q 0,-0.149 -0.05,-0.225 -0.05,-0.08 -0.155,-0.08 -0.1,0 -0.177,0.07 -0.08,0.06 -0.131,0.195 v 0 q 0.06,-0.151 0.153,-0.223 0.1,-0.07 0.237,-0.07 0.155,0 0.236,0.101 0.08,0.1 0.08,0.286 v 0.156 z m 0.1,0.503 q -0.07,0 -0.125,0 -0.06,0 -0.129,0 v -0.01 h 0.03 q 0.07,0 0.103,-0.04 0.03,-0.03 0.03,-0.11 v -0.345 h 0.191 v 0.345 q 0,0.08 0.03,0.108 0.03,0.03 0.106,0.04 h 0.03 v 0.01 q -0.07,0 -0.134,0 -0.06,0 -0.131,0 v 0 z m 0.658,0 q -0.07,0 -0.133,0 -0.06,0 -0.133,0 v -0.01 h 0.03 q 0.08,0 0.105,-0.04 0.03,-0.03 0.03,-0.108 v -0.345 h 0.191 v 0.345 q 0,0.08 0.03,0.11 0.03,0.03 0.104,0.04 h 0.02 v 0.01 q -0.07,0 -0.128,0 -0.06,0 -0.125,0 v 0 z m -0.1,-0.503 v -0.861 q 0,-0.08 -0.03,-0.11 -0.03,-0.03 -0.111,-0.04 h -0.03 v -0.01 q 0.05,0 0.07,0 0.03,0 0.06,0 0.07,0 0.127,0 0.06,0 0.106,-0.02 v 0.02 1.028 z m 0.539,0.509 v -0.02 q 0.07,-0.01 0.09,-0.04 0.02,-0.03 -0.01,-0.09 l -0.111,-0.228 q -0.05,-0.102 -0.1,-0.138 -0.05,-0.04 -0.135,-0.04 h -0.1 v -0.01 h 0.1 q 0.07,0 0.129,-0.02 0.06,-0.02 0.112,-0.09 l 0.06,-0.07 q 0.05,-0.06 0.06,-0.102 0.02,-0.05 0,-0.08 -0.02,-0.04 -0.07,-0.06 -0.05,-0.02 -0.133,-0.03 v -0.01 q 0.05,0 0.117,0 0.07,0 0.154,0 0.05,0 0.09,0 0.04,0 0.08,0 0.03,0 0.07,0 v 0.01 q -0.06,0.02 -0.111,0.05 -0.05,0.02 -0.09,0.06 -0.04,0.04 -0.09,0.1 l -0.187,0.213 0.01,-0.03 q 0.05,0.01 0.09,0.04 0.04,0.03 0.07,0.07 0.03,0.05 0.07,0.132 l 0.09,0.173 q 0.04,0.07 0.07,0.113 0.03,0.04 0.06,0.05 0.03,0.01 0.09,0.02 v 0.02 q -0.07,0 -0.112,0 -0.04,0 -0.07,0 -0.03,0 -0.06,0 -0.04,0 -0.09,0 -0.05,0 -0.141,0 z m 1.19,-0.509 v -0.301 q 0,-0.111 -0.05,-0.167 -0.05,-0.06 -0.157,-0.06 -0.08,0 -0.135,0.02 -0.06,0.03 -0.06,0.06 0,0.02 0.01,0.05 0.02,0.03 0.03,0.06 0.02,0.03 0.02,0.06 0,0.04 -0.03,0.06 -0.03,0.02 -0.07,0.02 -0.05,0 -0.08,-0.03 -0.03,-0.03 -0.03,-0.08 0,-0.07 0.05,-0.123 0.05,-0.05 0.143,-0.08 0.09,-0.03 0.201,-0.03 0.183,0 0.264,0.09 0.08,0.09 0.08,0.284 v 0.17 z m -0.318,0.536 q -0.128,0 -0.203,-0.06 -0.07,-0.07 -0.07,-0.179 0,-0.09 0.04,-0.145 0.04,-0.06 0.111,-0.09 0.07,-0.03 0.144,-0.06 0.08,-0.02 0.145,-0.04 0.07,-0.02 0.111,-0.05 0.04,-0.03 0.04,-0.08 v 0.03 q -0.01,0.04 -0.05,0.07 -0.04,0.03 -0.1,0.06 -0.06,0.03 -0.112,0.06 -0.06,0.03 -0.09,0.09 -0.04,0.05 -0.04,0.137 0,0.09 0.05,0.143 0.05,0.05 0.131,0.05 0.07,0 0.121,-0.03 0.06,-0.03 0.1,-0.1 v 0.02 q -0.06,0.1 -0.141,0.142 -0.08,0.04 -0.185,0.04 z m 0.511,-0.127 q 0,0.05 0.01,0.07 0.01,0.02 0.05,0.02 0.03,0 0.06,-0.02 0.03,-0.02 0.06,-0.04 v 0.01 q -0.05,0.04 -0.09,0.06 -0.04,0.02 -0.107,0.02 -0.09,0 -0.14,-0.04 -0.05,-0.04 -0.05,-0.134 v -0.359 h 0.193 z m 1.622,0.127 -0.571,-1.348 v 0 1.136 q 0,0.09 0.03,0.123 0.03,0.03 0.119,0.04 h 0.05 v 0.01 q -0.04,0 -0.09,0 -0.05,0 -0.113,0 -0.04,0 -0.07,0 -0.03,0 -0.06,0 -0.03,0 -0.05,0 v -0.01 h 0.04 q 0.06,0 0.09,-0.02 0.03,-0.01 0.04,-0.05 0.01,-0.03 0.01,-0.1 v -1.038 q 0,-0.06 -0.01,-0.1 -0.01,-0.03 -0.04,-0.05 -0.03,-0.02 -0.08,-0.02 h -0.04 v -0.01 q 0.03,0 0.07,0 0.04,0 0.09,0 0.05,0 0.106,0 h 0.03 q 0.03,0 0.05,0 0.02,0 0.04,0 l 0.499,1.183 h -0.02 l 0.426,-1.191 q 0.04,0 0.07,0 0.03,0 0.05,0 h 0.02 q 0.06,0 0.105,0 0.05,0 0.09,0 0.04,0 0.07,0 v 0.01 h -0.04 q -0.06,0 -0.09,0.02 -0.03,0.01 -0.04,0.05 -0.01,0.03 -0.01,0.1 v 1.038 q 0,0.06 0.01,0.1 0.01,0.03 0.04,0.05 0.03,0.01 0.09,0.02 h 0.04 v 0.01 q -0.03,0 -0.07,0 -0.04,0 -0.09,0 -0.05,0 -0.105,0 h -0.02 -0.02 q -0.05,0 -0.101,0 -0.05,0 -0.09,0 -0.04,0 -0.06,0 v -0.01 h 0.04 q 0.06,0 0.08,-0.02 0.03,-0.01 0.04,-0.05 0.01,-0.03 0.01,-0.1 v -1.199 0 l -0.503,1.411 z m 1.555,0 q -0.135,0 -0.245,-0.06 -0.107,-0.06 -0.171,-0.177 -0.06,-0.12 -0.06,-0.304 0,-0.185 0.06,-0.305 0.06,-0.121 0.171,-0.179 0.11,-0.06 0.245,-0.06 0.137,0 0.244,0.06 0.108,0.06 0.169,0.179 0.06,0.12 0.06,0.305 0,0.184 -0.06,0.304 -0.06,0.119 -0.169,0.177 -0.107,0.06 -0.244,0.06 z m 0,-0.01 q 0.119,0 0.195,-0.125 0.08,-0.127 0.08,-0.399 0,-0.273 -0.08,-0.4 -0.08,-0.127 -0.195,-0.127 -0.119,0 -0.195,0.127 -0.08,0.127 -0.08,0.4 0,0.272 0.08,0.399 0.08,0.125 0.195,0.125 z m 1.161,0.01 q -0.127,0 -0.222,-0.06 -0.09,-0.07 -0.145,-0.187 -0.05,-0.121 -0.05,-0.286 0,-0.17 0.06,-0.291 0.06,-0.123 0.16,-0.187 0.103,-0.06 0.242,-0.06 0.115,0 0.191,0.05 0.08,0.05 0.09,0.112 v 0.01 q -0.01,-0.06 -0.08,-0.1 -0.06,-0.04 -0.149,-0.04 -0.145,0 -0.225,0.132 -0.08,0.131 -0.08,0.37 0,0.234 0.08,0.367 0.08,0.132 0.213,0.132 0.09,0 0.153,-0.05 0.07,-0.05 0.101,-0.131 v 0.01 q -0.03,0.09 -0.123,0.155 -0.09,0.06 -0.213,0.06 z m 0.309,-0.03 v -0.509 h 0.19 v 0.341 q 0,0.08 0.03,0.11 0.03,0.03 0.114,0.04 h 0.02 v 0.01 q -0.04,0 -0.07,0 -0.03,0 -0.05,0 -0.07,0 -0.127,0 -0.06,0 -0.105,0.02 z m 0,-0.509 v -0.861 q 0,-0.08 -0.03,-0.11 -0.03,-0.03 -0.112,-0.04 h -0.03 v -0.01 q 0.05,0 0.07,0 0.03,0 0.06,0 0.07,0 0.127,0 0.06,0 0.105,-0.02 v 0.02 1.028 z m 0.968,0.536 q -0.138,0 -0.243,-0.06 -0.103,-0.07 -0.163,-0.189 -0.06,-0.121 -0.06,-0.284 0,-0.162 0.06,-0.283 0.06,-0.123 0.167,-0.191 0.109,-0.07 0.256,-0.07 0.122,0 0.211,0.05 0.09,0.05 0.141,0.144 0.05,0.1 0.05,0.24 h -0.752 v -0.01 h 0.555 q 0,-0.113 -0.02,-0.205 -0.02,-0.09 -0.07,-0.145 -0.05,-0.05 -0.122,-0.05 -0.1,0 -0.173,0.1 -0.07,0.1 -0.09,0.308 v 0 q 0,0.03 0,0.06 0,0.03 0,0.05 0,0.232 0.09,0.365 0.09,0.132 0.246,0.132 0.101,0 0.189,-0.06 0.09,-0.06 0.137,-0.177 h 0.01 q -0.05,0.129 -0.159,0.205 -0.109,0.07 -0.258,0.07 z m 0.831,-0.03 q -0.07,0 -0.134,0 -0.06,0 -0.133,0 v -0.01 h 0.03 q 0.08,0 0.105,-0.04 0.03,-0.03 0.03,-0.108 v -0.345 h 0.191 v 0.345 q 0,0.05 0.01,0.08 0.01,0.03 0.04,0.04 0.03,0.01 0.08,0.02 h 0.06 v 0.01 q -0.05,0 -0.104,0 -0.05,0 -0.1,0 -0.05,0 -0.1,0 v 0 z m -0.1,-0.503 v -0.346 q 0,-0.08 -0.03,-0.11 -0.03,-0.03 -0.111,-0.04 h -0.03 v -0.01 q 0.05,0 0.07,0 0.03,0 0.06,0 0.07,0 0.128,0 0.06,0 0.105,-0.02 v 0.02 0.513 z m 0.567,-0.239 q -0.04,0 -0.07,-0.02 -0.02,-0.02 -0.02,-0.06 0,-0.03 0.01,-0.05 0.01,-0.02 0.02,-0.04 0.01,-0.02 0.01,-0.04 0,-0.05 -0.06,-0.05 -0.05,0 -0.1,0.02 -0.05,0.02 -0.1,0.06 -0.04,0.04 -0.07,0.08 v -0.02 q 0.05,-0.09 0.135,-0.136 0.09,-0.05 0.179,-0.05 0.09,0 0.135,0.04 0.05,0.05 0.05,0.124 0,0.06 -0.03,0.1 -0.03,0.04 -0.09,0.04 z m 0.493,0.742 q -0.07,0 -0.133,0 -0.06,0 -0.133,0 v -0.01 h 0.03 q 0.07,0 0.105,-0.04 0.03,-0.03 0.03,-0.108 v -0.345 h 0.191 v 0.345 q 0,0.08 0.03,0.11 0.03,0.03 0.103,0.04 h 0.03 v 0.01 q -0.07,0 -0.129,0 -0.06,0 -0.126,0 v 0 z m -0.1,-0.503 v -0.346 q 0,-0.08 -0.03,-0.11 -0.03,-0.03 -0.111,-0.04 h -0.03 v -0.01 q 0.05,0 0.07,0 0.03,0 0.06,0 0.07,0 0.127,0 0.06,0 0.106,-0.02 v 0.02 0.513 z m 0.654,0 v -0.199 q 0,-0.149 -0.05,-0.225 -0.05,-0.08 -0.155,-0.08 -0.1,0 -0.177,0.07 -0.08,0.06 -0.131,0.195 v 0 q 0.06,-0.151 0.153,-0.223 0.1,-0.07 0.237,-0.07 0.155,0 0.236,0.101 0.08,0.1 0.08,0.286 v 0.156 z m 0.1,0.503 q -0.06,0 -0.125,0 -0.06,0 -0.129,0 v -0.01 h 0.03 q 0.07,0 0.103,-0.04 0.03,-0.03 0.03,-0.11 v -0.345 h 0.191 v 0.345 q 0,0.08 0.03,0.108 0.03,0.03 0.105,0.04 h 0.03 v 0.01 q -0.07,0 -0.133,0 -0.06,0 -0.132,0 v 0 z"
       id="text35"
       transform="matrix(2458.1213,0,0,1729.2082,42755703,-28680374)"
       aria-label="Minka Modern" />
    <ellipse
       style="fill:#000000;fill-opacity:1;stroke:#fafafa;stroke-width:325.809;stroke-linecap:square;stroke-linejoin:bevel;stroke-dasharray:81.4533, 81.4533;stroke-dashoffset:0;stroke-opacity:1;paint-order:markers stroke fill"
       id="path41"
       cx="7175.5063"
       cy="8147.4717"
       rx="825.55939"
       ry="822.37146" />
  </g>
</svg>
